<?xml version="1.0" encoding="iso-8859-1"?>
<!-- Generator: Adobe Illustrator 24.0.0, SVG Export Plug-In . SVG Version: 6.00 Build 0)  -->
<svg version="1.1" id="&#xB808;&#xC774;&#xC5B4;_1" xmlns="http://www.w3.org/2000/svg" xmlns:xlink="http://www.w3.org/1999/xlink"
	 x="0px" y="0px" viewBox="0 0 24 24" style="enable-background:new 0 0 24 24;" xml:space="preserve">
<g>
	
		<linearGradient id="SVGID_1_" gradientUnits="userSpaceOnUse" x1="12" y1="19.4647" x2="12" y2="7.22" gradientTransform="matrix(1 0 0 -1 0 26)">
		<stop  offset="0" style="stop-color:#FFB700"/>
		<stop  offset="1" style="stop-color:#FF9700"/>
	</linearGradient>
	<polygon style="fill:url(#SVGID_1_);" points="21.1,18.8 2.9,18.8 5.2,6.5 18.8,6.5 	"/>
	<polygon style="fill:#FFDB43;" points="18.8,6.5 5.2,6.5 7.8,3.4 16.2,3.4 	"/>
	<g>
		<polygon style="fill:#FFDB43;" points="8.4,6.2 6.9,19.2 5.5,19 7.4,6.1 		"/>
	</g>
	<path style="fill:#D8D6D2;" d="M21.4,21.3H2.6c-0.7,0-1.2-0.6-1.2-1.2l0,0c0-0.7,0.6-1.2,1.2-1.2h18.8c0.7,0,1.2,0.6,1.2,1.2l0,0
		C22.7,20.7,22.1,21.3,21.4,21.3z"/>
</g>
</svg>
